<?xml version="1.0" encoding="iso-8859-1"?>
<!-- Generator: Adobe Illustrator 19.0.0, SVG Export Plug-In . SVG Version: 6.00 Build 0)  -->
<svg xmlns="http://www.w3.org/2000/svg" xmlns:xlink="http://www.w3.org/1999/xlink" version="1.1" id="Capa_1" x="0px" y="0px" viewBox="0 0 512 512" style="enable-background:new 0 0 512 512;" xml:space="preserve" width="512" height="512">
<g>
	<g>
		<path style="fill:#FF8086;" d="M496.484,115.718H15.516c-4.427,0-8.016,3.589-8.016,8.016v312.629    c0,4.427,3.589,8.016,8.016,8.016h201.568c3.35,0,6.614,1.915,7.677,5.092c2.128,6.358,8.132,10.94,15.207,10.94h32.065    c7.074,0,13.078-4.582,15.207-10.94c1.063-3.177,4.327-5.092,7.677-5.092h201.568c4.427,0,8.016-3.589,8.016-8.016V123.734    C504.5,119.307,500.911,115.718,496.484,115.718z"/>
		<path style="fill:#E5646E;" d="M39.565,444.379h177.519c3.35,0,6.614,1.915,7.678,5.092c2.127,6.358,8.132,10.94,15.206,10.94    h32.065c7.075,0,13.079-4.582,15.206-10.94c1.064-3.177,4.327-5.092,7.678-5.092h177.519v-32.065H39.565V444.379z"/>
		<rect x="39.565" y="99.685" style="fill:#F9EAC7;" width="432.871" height="312.629"/>
		<rect x="71.629" y="51.589" style="fill:#F6D190;" width="248.5" height="328.661"/>
		<path style="fill:#FF8086;" d="M243.006,124.138c-10.79-1.638-20.641,1.82-27.842,8.245c-1.844,1.645-4.66,1.645-6.504,0    c-7.202-6.425-17.053-9.883-27.842-8.245c-17.387,2.64-29.967,18.942-29.016,36.502c1.889,34.847,42.312,63.886,55.785,72.627    c2.656,1.723,5.995,1.723,8.651,0c13.472-8.741,53.896-37.78,55.785-72.627C272.973,143.08,260.392,126.778,243.006,124.138z"/>
		<rect x="71.629" y="51.589" style="fill:#ECBD83;" width="32.065" height="328.661"/>
		<path style="fill:#E5646E;" d="M172.896,147.845c0.583-9.16,4.542-17.55,10.54-23.956c-0.87,0.067-1.735,0.114-2.619,0.249    c-17.387,2.64-29.968,18.941-29.015,36.502c1.889,34.847,42.312,63.886,55.785,72.627c2.656,1.723,5.994,1.723,8.65,0    c1.14-0.74,2.529-1.675,4.015-2.697C204.234,216.539,170.671,182.793,172.896,147.845z"/>
	</g>
	<g>
		<path d="M496.484,108.218h-16.548v-8.532c0-4.142-3.358-7.5-7.5-7.5H327.629V59.605c0-8.556-6.96-15.516-15.516-15.516H79.645    c-8.556,0-15.516,6.96-15.516,15.516v32.581H39.564c-4.142,0-7.5,3.358-7.5,7.5v8.532H15.516C6.96,108.218,0,115.178,0,123.734    v312.629c0,8.556,6.96,15.516,15.516,15.516h202.145c3.139,9.309,11.953,16.032,22.307,16.032h32.064    c10.354,0,19.168-6.723,22.307-16.032h202.145c8.556,0,15.516-6.96,15.516-15.516V123.734    C512,115.178,505.04,108.218,496.484,108.218z M79.129,59.605c0-0.285,0.231-0.516,0.516-0.516h16.548v8.533    c0,4.142,3.358,7.5,7.5,7.5s7.5-3.358,7.5-7.5v-8.533h200.919c0.285,0,0.516,0.231,0.516,0.516v312.629    c0,0.285-0.231,0.516-0.516,0.516H111.193V99.682c0-4.142-3.358-7.5-7.5-7.5s-7.5,3.358-7.5,7.5V372.75H79.645    c-0.285,0-0.516-0.231-0.516-0.516V59.605z M64.129,107.186v265.048c0,8.556,6.96,15.516,15.516,15.516H248.5v18.676    c-2.648-1.034-5.523-1.611-8.532-1.611H47.064V107.186H64.129z M497,436.363c0,0.285-0.231,0.516-0.516,0.516H288.064    c-4.142,0-7.5,3.358-7.5,7.5c0,4.705-3.828,8.532-8.532,8.532h-32.064c-4.705,0-8.532-3.828-8.532-8.532    c0-4.142-3.358-7.5-7.5-7.5H15.516c-0.285,0-0.516-0.231-0.516-0.516V123.734c0-0.285,0.231-0.516,0.516-0.516h16.548v289.097    c0,4.142,3.358,7.5,7.5,7.5h200.403c4.705,0,8.532,3.828,8.532,8.532c0,4.142,3.358,7.5,7.5,7.5s7.5-3.358,7.5-7.5    c0-4.705,3.828-8.532,8.532-8.532h200.403c4.142,0,7.5-3.358,7.5-7.5V396.28c0-4.142-3.358-7.5-7.5-7.5s-7.5,3.358-7.5,7.5v8.535    H272.032c-3.009,0-5.884,0.577-8.532,1.611V387.75h48.613c8.556,0,15.516-6.96,15.516-15.516v-24.564h72.662    c4.142,0,7.5-3.358,7.5-7.5s-3.358-7.5-7.5-7.5h-72.662v-17.064h24.564c4.142,0,7.5-3.358,7.5-7.5s-3.358-7.5-7.5-7.5h-24.564    v-17.064h72.662c4.142,0,7.5-3.358,7.5-7.5s-3.358-7.5-7.5-7.5h-72.662v-33.097h96.71c4.142,0,7.5-3.358,7.5-7.5    s-3.358-7.5-7.5-7.5h-96.71v-17.064h24.564c4.142,0,7.5-3.358,7.5-7.5s-3.358-7.5-7.5-7.5h-24.564v-17.064h96.71    c4.142,0,7.5-3.358,7.5-7.5s-3.358-7.5-7.5-7.5h-96.71v-49.129h137.307v257.032c0,4.142,3.358,7.5,7.5,7.5s7.5-3.358,7.5-7.5v-241    h16.548c0.285,0,0.516,0.231,0.516,0.516V436.363z"/>
		<path d="M208.155,242.451c1.162,0.672,2.459,1.009,3.756,1.009s2.595-0.336,3.756-1.009c2.411-1.395,59.09-34.67,63.632-78.733    c1.22-11.835-2.477-23.8-10.143-32.828c-7.411-8.727-17.682-13.905-28.923-14.58c-10.356-0.621-20.342,2.605-28.323,8.998    c-7.981-6.394-17.954-9.621-28.324-8.998c-11.24,0.675-21.511,5.853-28.921,14.58c-7.667,9.028-11.363,20.993-10.144,32.828    C149.065,207.78,205.744,241.056,208.155,242.451z M166.1,140.599c4.738-5.58,11.269-8.888,18.388-9.316    c0.535-0.032,1.068-0.048,1.6-0.048c7.706,0,14.974,3.355,20.143,9.353c1.425,1.653,3.499,2.604,5.682,2.604    s4.257-0.951,5.682-2.604c5.525-6.412,13.454-9.796,21.742-9.305c7.12,0.428,13.65,3.737,18.389,9.316    c5.032,5.927,7.458,13.792,6.655,21.581c-1.92,18.623-16.785,35.741-28.918,46.823c-9.344,8.534-18.577,14.908-23.55,18.125    c-4.974-3.218-14.207-9.592-23.55-18.125c-12.132-11.082-26.998-28.2-28.918-46.823    C158.641,154.392,161.066,146.526,166.1,140.599z"/>
		<path d="M264.016,276.557H159.807c-4.142,0-7.5,3.358-7.5,7.5s3.358,7.5,7.5,7.5h104.209c4.142,0,7.5-3.358,7.5-7.5    S268.158,276.557,264.016,276.557z"/>
		<path d="M239.968,308.621h-56.113c-4.142,0-7.5,3.358-7.5,7.5s3.358,7.5,7.5,7.5h56.113c4.142,0,7.5-3.358,7.5-7.5    S244.11,308.621,239.968,308.621z"/>
		<path d="M424.339,188.379h-40.081c-4.142,0-7.5,3.358-7.5,7.5s3.358,7.5,7.5,7.5h40.081c4.142,0,7.5-3.358,7.5-7.5    S428.481,188.379,424.339,188.379z"/>
		<path d="M400.291,300.605h-16.032c-4.142,0-7.5,3.358-7.5,7.5s3.358,7.5,7.5,7.5h16.032c4.142,0,7.5-3.358,7.5-7.5    S404.433,300.605,400.291,300.605z"/>
	</g>
</g>















</svg>
