<svg height="512" viewBox="0 0 512 512" width="512" xmlns="http://www.w3.org/2000/svg" xmlns:xlink="http://www.w3.org/1999/xlink"><linearGradient id="New_Gradient_Swatch_11" gradientUnits="userSpaceOnUse" x1="47.029" x2="464.971" y1="480.971" y2="63.029"><stop offset="0" stop-color="#b8e1e3"/><stop offset="1" stop-color="#dcf0f1"/></linearGradient><linearGradient id="New_Gradient_Swatch_7" gradientUnits="userSpaceOnUse" x1="110.863" x2="337.137" y1="385.137" y2="158.863"><stop offset="0" stop-color="#816767"/><stop offset="1" stop-color="#9d8989"/></linearGradient><linearGradient id="New_Gradient_Swatch_6" gradientUnits="userSpaceOnUse" x1="178.745" x2="269.255" y1="317.255" y2="226.745"><stop offset="0" stop-color="#e3dddd"/><stop offset="1" stop-color="#fff"/></linearGradient><linearGradient id="New_Gradient_Swatch_3" gradientUnits="userSpaceOnUse" x1="204.558" x2="243.442" y1="285.672" y2="246.789"><stop offset="0" stop-color="#e87676"/><stop offset="1" stop-color="#f2b3b3"/></linearGradient><linearGradient id="New_Gradient_Swatch_14" gradientUnits="userSpaceOnUse" x1="413.753" x2="454.163" y1="163.425" y2="123.015"><stop offset="0" stop-color="#f4c361"/><stop offset="1" stop-color="#f9dea7"/></linearGradient><g id="_12-music" data-name="12-music"><g id="filled"><rect fill="url(#New_Gradient_Swatch_11)" height="384" rx="24" width="480" x="16" y="80"/><circle cx="224" cy="272" fill="url(#New_Gradient_Swatch_7)" r="160"/><circle cx="224" cy="272" fill="url(#New_Gradient_Swatch_6)" r="64"/><path d="m224 250.652c-17.707-11.8-29.511 1.408-29.511 17.707s29.511 29.511 29.511 29.511 29.511-13.212 29.511-29.511-11.804-29.511-29.511-17.707z" fill="url(#New_Gradient_Swatch_3)"/><path d="m439.726 112-35.764 41.634 24.835 20.199 35.203-40.982z" fill="url(#New_Gradient_Swatch_14)"/><path d="m472 68h-432a36.04 36.04 0 0 0 -36 36v336a36.04 36.04 0 0 0 36 36h432a36.04 36.04 0 0 0 36-36v-336a36.04 36.04 0 0 0 -36-36zm12 372a12.013 12.013 0 0 1 -12 12h-432a12.013 12.013 0 0 1 -12-12v-336a12.013 12.013 0 0 1 12-12h432a12.013 12.013 0 0 1 12 12z"/><path d="m224 196a76 76 0 1 0 76 76 76.085 76.085 0 0 0 -76-76zm0 128a52 52 0 1 1 52-52 52.059 52.059 0 0 1 -52 52z"/><path d="m249.208 237.207c-4.669-2.5-13.594-5.373-25.208-.231-11.614-5.142-20.54-2.268-25.208.231-10.056 5.382-16.3 17.319-16.3 31.152 0 22.913 30.494 37.726 36.608 40.464a12 12 0 0 0 9.806 0c6.114-2.738 36.608-17.551 36.608-40.464-.003-13.833-6.25-25.77-16.306-31.152zm-25.208 47.242c-8.811-4.894-17.509-12.113-17.509-16.09 0-5.229 1.869-9.05 3.628-9.992a2.3 2.3 0 0 1 1.087-.23c1.488 0 3.734.9 6.14 2.5a12 12 0 0 0 13.312 0c3.1-2.068 5.94-2.958 7.227-2.27 1.759.942 3.628 4.763 3.628 9.992-.002 3.634-8.108 10.873-17.513 16.09z"/><path d="m117.629 234.839a11.991 11.991 0 0 0 15.989-5.69 100.522 100.522 0 0 1 33.247-39.232 12 12 0 1 0 -13.73-19.684 124.559 124.559 0 0 0 -41.2 48.618 12 12 0 0 0 5.694 15.988z"/><path d="m224 372a100.113 100.113 0 0 1 -100-100 12 12 0 0 0 -24 0 124.14 124.14 0 0 0 124 124 12 12 0 0 0 0-24z"/><path d="m471.819 123.749-24.274-20.849a12.068 12.068 0 0 0 -16.921 1.284l-35.765 41.634c-4.731 5.269-3.391 14 2.447 17.873l-22.057 26.468a172.151 172.151 0 0 0 -151.249-90.159c-94.841 0-172 77.159-172 172s77.159 172 172 172 172-77.159 172-172a171.211 171.211 0 0 0 -9.867-57.415l29.793-35.752c5.774 6.037 15.491 10.592 21.973 2.819l35.2-40.981a12.07 12.07 0 0 0 -1.28-16.922zm-99.819 148.251c0 81.607-66.393 148-148 148s-148-66.393-148-148 66.393-148 148-148a148.2 148.2 0 0 1 134.492 86.265l-31.711 38.053a12 12 0 0 0 -2.781 7.682v44.367l-29.984 44.977a12 12 0 1 0 19.968 13.312l32-48a11.992 11.992 0 0 0 2.016-6.656v-43.655l19.728-23.673a147.818 147.818 0 0 1 4.272 35.328zm55.57-115.156a11.935 11.935 0 0 0 -3.888-6.063c-.285-.238-.581-.455-.881-.662l18.208-21.2 6.069 5.213z"/><circle cx="448" cy="268" r="12"/><circle cx="448" cy="312" r="12"/><circle cx="448" cy="356" r="12"/><circle cx="448" cy="400" r="12"/></g></g></svg>