<svg id="Capa_1" enable-background="new 0 0 511.996 511.996" height="512" viewBox="0 0 511.996 511.996" width="512" xmlns="http://www.w3.org/2000/svg"><g><g><path d="m504.496 426.84h-496.996v-310.622h139.78l15.531-31.062h341.685z" fill="#fec165"/><g><path d="m7.5 116.218h50v310.623h-50z" fill="#fdb441"/></g><path d="m504.496 178.342h-496.996v-62.124h139.78l15.531-31.062h341.685z" fill="#eaf6ff"/><g><g><g><path d="m7.5 116.218h50v62.125h-50z" fill="#d8ecfe"/></g></g></g><path d="m7.501 395.778h496.995v31.062h-496.995z" fill="#eaf6ff"/><path d="m7.501 395.778h51.062v31.062h-51.062z" fill="#d8ecfe"/><circle cx="287.06" cy="287.06" fill="#c5805d" r="139.78"/><path d="m197.28 287.06c0-68.665 49.511-125.762 114.78-137.548-8.112-1.465-16.466-2.232-25-2.232-77.198 0-139.78 62.582-139.78 139.78s62.582 139.78 139.78 139.78c8.534 0 16.888-.768 25-2.232-65.268-11.785-114.78-68.883-114.78-137.548z" fill="#ba7052"/><circle cx="287.06" cy="287.06" fill="#eaf6ff" r="108.718"/><path d="m218.342 287.06c0-53.21 38.229-97.486 88.718-106.875-6.484-1.206-13.167-1.843-20-1.843-60.043 0-108.718 48.675-108.718 108.718s48.675 108.718 108.718 108.718c6.833 0 13.516-.637 20-1.843-50.489-9.389-88.718-53.664-88.718-106.875z" fill="#d8ecfe"/><path d="m411.309 116.218h62.125v31.062h-62.125z" fill="#fec165"/><path d="m411.309 116.218h30v31.062h-30z" fill="#fdb441"/><path d="m38.562 85.156h77.656v31.062h-77.656z" fill="#c5805d"/><path d="m38.562 85.156h40v31.062h-40z" fill="#ba7052"/><circle cx="123.983" cy="170.577" fill="#f47c7c" r="23.297"/><path d="m120.687 170.577c0-9.287 5.434-17.305 13.297-21.047-3.03-1.442-6.421-2.25-10-2.25-12.866 0-23.297 10.43-23.297 23.297 0 12.866 10.43 23.297 23.297 23.297 3.579 0 6.97-.808 10-2.25-7.863-3.743-13.297-11.76-13.297-21.047z" fill="#ee6161"/><g><path d="m339.934 294.084c19.854-20.192 5.704-54.829-22.984-54.829-13.533 0-25.111 8.343-29.889 20.163-4.779-11.82-16.356-20.163-29.889-20.163-28.693 0-42.851 34.659-22.963 54.851l52.853 52.76c5.79-5.782 52.865-52.775 52.872-52.782z" fill="#f47c7c"/><g><path d="m274.207 294.106c-14.388-14.608-10.956-36.787 2.906-47.937-5.485-4.329-12.411-6.913-19.942-6.913-28.693 0-42.851 34.659-22.963 54.851l52.853 52.76c2.369-2.365 10.641-10.622 20-19.965z" fill="#ee6161"/></g></g></g><g><path d="m504.496 77.655h-138.967c-4.143 0-7.5 3.357-7.5 7.5s3.357 7.5 7.5 7.5h131.467v78.188c-123.664.14-116.903-.338-119.082.375-52.263-41.078-127.234-42.784-181.757-.018-2.063-.659-1.042-.231-41.383-.356.001-.089.007-.177.007-.266 0-16.981-13.815-30.797-30.797-30.797-16.98 0-30.932 13.855-30.79 31.062h-78.194v-47.125h132.28c2.841 0 5.438-1.605 6.708-4.146l13.458-26.917h165.396c4.143 0 7.5-3.357 7.5-7.5s-3.357-7.5-7.5-7.5h-170.03c-2.841 0-5.438 1.605-6.708 4.146l-13.459 26.917h-18.927v-23.563c0-4.143-3.357-7.5-7.5-7.5h-77.656c-4.143 0-7.5 3.357-7.5 7.5v23.562h-23.562c-4.143 0-7.5 3.357-7.5 7.5v310.623c0 4.143 3.357 7.5 7.5 7.5h496.996c4.143 0 7.5-3.357 7.5-7.5v-341.685c0-4.142-3.357-7.5-7.5-7.5zm-458.434 15h62.655v16.062h-62.655zm450.934 93.188v202.436h-103.048c53.83-56.816 53.899-145.547 0-202.436zm-373.013-31.063c8.71 0 15.797 7.087 15.797 15.797s-7.087 15.796-15.797 15.796-15.797-7.086-15.797-15.796 7.087-15.797 15.797-15.797zm-26.729 31.063c5.314 9.268 15.301 15.53 26.73 15.53s21.415-6.262 26.73-15.53h29.358c-12.951 13.666-23.2 29.699-30.161 47.438-1.514 3.855.386 8.208 4.242 9.721 3.854 1.515 8.207-.386 9.721-4.242 9.604-24.476 26.145-45.372 47.831-60.433 86.861-60.317 207.637 1.718 207.637 108.733 0 72.939-59.341 132.28-132.28 132.28-79.243 0-141.621-69.826-131.149-149.659.538-4.106-2.354-7.873-6.461-8.412-4.104-.537-7.872 2.354-8.412 6.461-5.626 42.869 7.591 87.254 39.135 120.548h-165.175v-202.435zm-82.253 233.498v-16.062h181.694c7.944 6.19 16.536 11.583 25.656 16.062zm481.995 0h-145.227c9.163-4.501 17.795-9.922 25.77-16.15 1.159.168-6.472.05 119.457.087z"/><path d="m287.061 403.278c35.789 0 69.051-16.127 91.255-44.245 2.567-3.251 2.013-7.968-1.237-10.534-3.251-2.566-7.967-2.014-10.534 1.237-19.343 24.494-48.312 38.542-79.483 38.542-55.812 0-101.218-45.406-101.218-101.218s45.406-101.218 101.218-101.218c70.383 0 119.338 70.457 94.96 136.339-1.438 3.885.547 8.199 4.432 9.637 3.887 1.438 8.2-.547 9.637-4.432 28.054-75.816-28.369-156.544-109.028-156.544-64.083 0-116.218 52.135-116.218 116.218s52.133 116.218 116.216 116.218z"/><path d="m473.434 154.78c4.143 0 7.5-3.357 7.5-7.5v-31.062c0-4.143-3.357-7.5-7.5-7.5h-62.124c-4.143 0-7.5 3.357-7.5 7.5v31.062c0 4.143 3.357 7.5 7.5 7.5zm-54.624-31.062h47.124v16.062h-47.124z"/><path d="m193.874 108.718c-4.143 0-7.5 3.357-7.5 7.5s3.357 7.5 7.5 7.5h46.593c4.143 0 7.5-3.357 7.5-7.5s-3.357-7.5-7.5-7.5z"/><path d="m38.562 139.78c-4.143 0-7.5 3.357-7.5 7.5s3.357 7.5 7.5 7.5h31.062c4.143 0 7.5-3.357 7.5-7.5s-3.357-7.5-7.5-7.5z"/><path d="m287.061 245.274c-18.667-21.364-54.739-17.172-66.464 10.834-5.996 14.32-3.793 30.753 8.3 43.294l52.865 52.771c2.926 2.922 7.67 2.924 10.598 0l52.49-52.396.397-.398c.02-.019.038-.038.057-.058 11.379-11.59 14.53-28.143 8.221-43.214-11.745-28.051-47.829-32.163-66.464-10.833zm47.508 43.569c-.002.002-.021.022-.023.025l-47.485 47.4c-56.056-55.957-46.476-46.288-47.51-47.426-8.483-8.613-8.206-19.564-5.118-26.941 8.664-20.696 37.538-19.796 45.675.328 2.521 6.236 11.384 6.24 13.906-.001 8.149-20.157 37.024-20.989 45.674-.329 3.088 7.377 3.366 18.33-5.119 26.944z"/></g></g></svg>