<svg height="512" viewBox="0 0 512 512" width="512" xmlns="http://www.w3.org/2000/svg"><g id="filled_outline" data-name="filled outline"><path d="m400 144h16v16h-16z" fill="#8d7761"/><path d="m360 272a8 8 0 0 1 -8-8v-72a8 8 0 0 1 16 0v72a8 8 0 0 1 -8 8z" fill="#c3c3c3"/><path d="m360 196.038a78.038 78.038 0 0 1 -34.883-8.191l-9.383-4.692a8 8 0 1 1 7.157-14.31l9.382 4.691a62.3 62.3 0 0 0 55.454 0l9.382-4.691a8 8 0 1 1 7.157 14.31l-9.383 4.692a78.038 78.038 0 0 1 -34.883 8.191z" fill="#eaeae8"/><path d="m392 152h32v112h-32z" fill="#8d7761"/><path d="m113.5 269.726-50.342 106.274h-23.158a24 24 0 0 0 -24 24v8h72l56.842-120h43.158l-1-32h-51.812a24 24 0 0 0 -21.688 13.726z" fill="#99d8aa"/><path d="m187 256h-51v-10.124a21.876 21.876 0 0 1 21.876-21.876h29.124z" fill="#8dc79d"/><path d="m320 256h104v32h-104z" fill="#fbb540"/><path d="m424 272h56v16h-56z" fill="#d1763e"/><path d="m424 304h56v16h-56z" fill="#d1763e"/><path d="m424 336h56v16h-56z" fill="#d1763e"/><path d="m424 368h56v16h-56z" fill="#d1763e"/><g fill="#b36435"><path d="m424 272h16v16h-16z"/><path d="m424 304h16v16h-16z"/><path d="m424 336h16v16h-16z"/><path d="m424 368h16v16h-16z"/><path d="m464 272h16v16h-16z"/><path d="m464 304h16v16h-16z"/><path d="m464 336h16v16h-16z"/><path d="m464 368h16v16h-16z"/></g><path d="m184 104h144v184h-144z" fill="#6cbae5"/><path d="m184 104h144v16h-144z" fill="#4799cf"/><path d="m392 240h32v16h-32z" fill="#746250"/><path d="m424 416a8 8 0 0 1 -8-8v-152a8 8 0 0 1 16 0v152a8 8 0 0 1 -8 8z" fill="#e78244"/><path d="m480 416a8 8 0 0 1 -8-8v-152a8 8 0 0 1 16 0v152a8 8 0 0 1 -8 8z" fill="#e78244"/><path d="m152 288h32v120h-32z" fill="#8d7761"/><path d="m328 288h32v120h-32z" fill="#8d7761"/><path d="m152 288h32v16h-32z" fill="#746250"/><path d="m328 288h32v16h-32z" fill="#746250"/><path d="m368 104h-224l112-80z" fill="#b94137"/><path d="m296 144c0 1.35-.07 2.68-.2 4a40 40 0 0 1 -79.6 0c-.13-1.32-.2-2.65-.2-4a40 40 0 0 1 80 0z" fill="#4799cf"/><ellipse cx="256" cy="140" fill="#3f86bb" rx="39.8" ry="36"/><path d="m424 136a15.964 15.964 0 1 1 -.5-4 16 16 0 0 1 .5 4z" fill="#786653"/><ellipse cx="408" cy="132" fill="#8d7761" rx="15.5" ry="12"/><path d="m480 416h-456a8 8 0 0 1 0-16h456a8 8 0 0 1 0 16z" fill="#55785f"/><path d="m256 216a40 40 0 0 0 -40 40v192h80v-192a40 40 0 0 0 -40-40z" fill="#fbb540"/><circle cx="256" cy="448" fill="#c38325" r="40"/><path d="m296 448a40 40 0 0 0 -80 0v-48a40 40 0 0 1 80 0z" fill="#ea9d2d"/><path d="m296 352a40 40 0 0 0 -80 0v-48a40 40 0 0 1 80 0z" fill="#ea9d2d"/><path d="m208 416v32a48 48 0 0 0 96 0v-32h176a8 8 0 0 0 8-8v-152a8 8 0 0 0 -16 0v16h-40v-120a7.972 7.972 0 0 0 -2.346-5.659 24 24 0 1 0 -43.308 0 7.972 7.972 0 0 0 -2.346 5.659v23.23a62.355 62.355 0 0 1 -48 0v-63.23h32a8 8 0 0 0 4.649-14.51l-112-80a8 8 0 0 0 -9.3 0l-112 80a8 8 0 0 0 4.651 14.51h32v104h-18.124a29.909 29.909 0 0 0 -29.876 29.876v2.963a32.159 32.159 0 0 0 -21.731 17.461l-48.169 101.7h-18.1a32.036 32.036 0 0 0 -32 32v8a8 8 0 0 0 8 8zm-64-16h-43.359l43.359-91.535zm16 0v-104h16v104zm32 0v-104h16v104zm96 12.261a47.889 47.889 0 0 0 -64 0v-12.261a32 32 0 0 1 64 0zm0-96a47.889 47.889 0 0 0 -64 0v-12.261a32 32 0 0 1 64 0zm0 48a47.889 47.889 0 0 0 -64 0v-12.261a32 32 0 0 1 64 0zm0-96a47.889 47.889 0 0 0 -64 0v-12.261a32 32 0 0 1 64 0zm-32 211.739a32 32 0 1 1 32-32 32.036 32.036 0 0 1 -32 32zm48-184h16v104h-16zm112-32v16h-80v-16zm-16-104h16v88h-16zm16 136v104h-48v-104zm16 56h40v16h-40zm0 32h40v16h-40zm40-48h-40v-16h40zm-136 64v-104h16v104zm136-112v16h-40v-16zm-64-160a8 8 0 1 1 -8 8 8.009 8.009 0 0 1 8-8zm-24 120h-16v-52.38a78.246 78.246 0 0 0 16-3.343zm-32-52.38v52.38h-16v-55.723a78.1 78.1 0 0 0 16 3.343zm-96-161.789 87.036 62.169h-174.072zm32 110.169a32 32 0 1 1 -32-32 32.036 32.036 0 0 1 32 32zm-67.739-32a48 48 0 1 0 71.478 0h28.261v168h-16v-24a48 48 0 0 0 -96 0v24h-16v-168zm-76.261 133.876a13.892 13.892 0 0 1 13.876-13.876h18.124v16h-32zm-104 138.124h23.158a8 8 0 0 0 7.23-4.575l50.34-106.275a16.072 16.072 0 0 1 14.46-9.15h40.812v16h-31.158a8 8 0 0 0 -7.23 4.575l-54.674 115.425h-58.938a16.019 16.019 0 0 1 16-16z"/></g></svg>