<svg id="Layer_1" enable-background="new 0 0 512 512" height="512" viewBox="0 0 512 512" width="512" xmlns="http://www.w3.org/2000/svg"><g><g><g><g><g><g><path d="m37.629 215.88c16.64 0 30.129-13.505 30.129-30.163v-17.459h-60.258v17.459c0 16.658 13.489 30.163 30.129 30.163z" fill="#e0efff"/></g></g><g><g><path d="m504.5 245.167v-174.167c-30.175 16.159-49.015 47.636-49.015 81.896v67.737c0 13.55 10.972 24.535 24.507 24.535h24.508z" fill="#e0efff"/></g></g></g><g><g><ellipse cx="258.561" cy="286.642" fill="#e0efff" rx="176.668" ry="176.868"/></g><g><path d="m333.095 299.204-55.258 55.32h-93.809v-306.034h149.067z" fill="#ff91c1"/><path d="m293.095 48.49v250.714l-15.258 55.32 55.258-55.32v-250.714z" fill="#ff7db6"/><path d="m277.837 354.524v-55.32h55.258z" fill="#ff5492"/></g><path d="m276.286 90.619c-8.196 0-15.243 5.429-18.355 13.207-3.112-7.778-10.159-13.207-18.355-13.207-11.078 0-20.058 9.916-20.058 22.148 0 27.998 38.414 43.459 38.414 43.459s38.035-15.67 38.414-43.459c.165-12.231-8.982-22.148-20.06-22.148z" fill="#fff"/></g></g></g><g><path d="m75.259 185.716v-114.716c0-9.386-15-9.813-15 0v89.757h-15.854v-89.696c.082-10.169-14.925-9.565-15.001-.121v89.818h-14.404v-89.758c0-9.386-15-9.813-15 0v114.716c0 18.198 12.961 33.421 30.129 36.91v202.17c0 4.142 3.357 7.5 7.5 7.5s7.5-3.358 7.5-7.5v-202.17c17.168-3.489 30.13-18.712 30.13-36.91zm-37.63 22.664c-12.478 0-22.629-10.167-22.629-22.664v-9.959h45.259v9.959c0 12.497-10.152 22.664-22.63 22.664z"/><path d="m508.354 64.565c-2.262-1.354-5.068-1.421-7.394-.177-32.676 17.497-52.975 51.411-52.975 88.507v67.737c0 17.664 14.358 32.035 32.007 32.035h17.008v172.129c0 4.142 3.357 7.5 7.5 7.5s7.5-3.358 7.5-7.5v-353.796c0-2.637-1.385-5.08-3.646-6.435zm-28.362 173.102c-9.378 0-17.007-7.642-17.007-17.035v-67.737c0-27.135 12.767-52.268 34.015-68.239v105.005 48.006z"/><path d="m340.596 121.553v-12.789c0-9.386-15-9.813-15 0v182.94h-47.758c-4.143 0-7.5 3.358-7.5 7.5v47.82h-78.811v-291.034h134.068v13.244c0 9.386 15 9.813 15 0v-20.744c0-4.142-3.357-7.5-7.5-7.5h-149.068c-4.143 0-7.5 3.358-7.5 7.5v73.071c-29.8 14.865-55.037 37.5-73.074 65.639-19.011 29.659-29.06 64.045-29.06 99.442 0 101.661 82.617 184.368 184.168 184.368s184.168-82.707 184.168-184.368c0-35.82-10.273-70.555-29.709-100.447-18.016-27.711-42.991-49.965-72.424-64.642zm-25.593 185.151-29.666 29.699v-29.699zm-56.441 149.306c-93.279 0-169.168-75.978-169.168-169.368 0-32.522 9.229-64.109 26.688-91.348 15.206-23.723 35.979-43.186 60.445-56.788v37.474c-34.979 25.949-55.84 67.303-55.84 110.832 0 24.351 6.435 48.289 18.607 69.226 4.719 8.116 17.899.943 12.967-7.539-10.843-18.65-16.574-39.981-16.574-61.687 0-34.931 15.079-68.288 40.84-91.473v159.185c0 4.142 3.357 7.5 7.5 7.5h93.811c1.974 0 3.911-.804 5.307-2.2l55.258-55.32c1.391-1.393 2.193-3.331 2.193-5.3v-103.948c25.835 23.186 40.927 56.5 40.927 91.557 0 67.777-55.141 122.917-122.918 122.917-29.572 0-58.147-10.652-80.464-29.995-7.091-6.149-17.239 4.908-9.824 11.335 25.043 21.706 57.107 33.66 90.288 33.66 76.048 0 137.918-61.87 137.918-137.917 0-43.668-20.865-84.921-55.927-110.891v-37.436c24.139 13.414 44.675 32.548 59.85 55.886 17.85 27.453 27.284 59.36 27.284 92.271-.001 93.389-75.889 169.367-169.168 169.367z"/><path d="m295.29 91.226c-5.157-5.228-11.906-8.107-19.004-8.107-6.916 0-13.404 2.769-18.355 7.519-4.951-4.75-11.439-7.519-18.355-7.519-15.196 0-27.559 13.3-27.559 29.647 0 32.688 41.354 49.708 43.113 50.417 1.888.731 3.774.723 5.658-.023 1.739-.717 42.614-17.927 43.056-50.292.11-8.132-3.007-16.02-8.554-21.642zm-22.632 47.563c-5.681 4.434-11.445 7.558-14.76 9.19-3.341-1.614-9.155-4.711-14.864-9.13-10.628-8.227-16.018-17.003-16.018-26.083 0-8.077 5.634-14.647 12.559-14.647 4.856 0 9.328 3.333 11.393 8.493 2.464 6.16 11.462 6.16 13.926 0 2.064-5.159 6.536-8.493 11.393-8.493 7.591 0 12.654 7.502 12.56 14.545-.125 9.048-5.571 17.838-16.189 26.125z"/><path d="m292.562 199.5h-68c-4.143 0-7.5 3.358-7.5 7.5s3.357 7.5 7.5 7.5h68c4.143 0 7.5-3.358 7.5-7.5s-3.358-7.5-7.5-7.5z"/><path d="m292.562 238.5h-68c-4.143 0-7.5 3.358-7.5 7.5s3.357 7.5 7.5 7.5h68c4.143 0 7.5-3.358 7.5-7.5s-3.358-7.5-7.5-7.5z"/></g></g></svg>