<?xml version="1.0" encoding="iso-8859-1"?>
<!-- Generator: Adobe Illustrator 19.0.0, SVG Export Plug-In . SVG Version: 6.00 Build 0)  -->
<svg version="1.1" id="Capa_1" xmlns="http://www.w3.org/2000/svg" xmlns:xlink="http://www.w3.org/1999/xlink" x="0px" y="0px"
	 viewBox="0 0 480 480" style="enable-background:new 0 0 480 480;" xml:space="preserve">
<path style="fill:#FFF3C9;" d="M64,215.975h352c13.255,0,24,10.745,24,24v104l0,0H40l0,0v-104C40,226.72,50.745,215.975,64,215.975z
	"/>
<path style="fill:#FFEAB8;" d="M416,215.975h-32c13.255,0,24,10.745,24,24v104h32v-104C440,226.72,429.255,215.975,416,215.975z"/>
<path style="fill:#FFF3C9;" d="M128,103.975h224c13.255,0,24,10.745,24,24v88l0,0H104l0,0v-88
	C104,114.72,114.745,103.975,128,103.975z"/>
<path style="fill:#FFEAB8;" d="M352,103.975h-32c13.255,0,24,10.745,24,24v88h32v-88C376,114.72,365.255,103.975,352,103.975z"/>
<g>
	<path style="fill:#A2DAE7;" d="M8,343.975h464l0,0c0,17.673-14.327,32-32,32H40C22.327,375.975,8,361.648,8,343.975L8,343.975z"/>
	<path style="fill:#A2DAE7;" d="M296,439.975H184c-17.673,0-32,14.327-32,32h176C328,454.301,313.673,439.975,296,439.975z"/>
	<path style="fill:#A2DAE7;" d="M224,375.975h32v64h-32V375.975z"/>
</g>
<g>
	<path style="fill:#FC88A1;" d="M416,215.975H64c-13.255,0-24,10.745-24,24v47.36c22.359,3.438,44.552-7.113,56-26.624
		c15.81,26.51,50.117,35.184,76.626,19.374c7.965-4.75,14.623-11.408,19.374-19.374c15.81,26.51,50.117,35.184,76.626,19.374
		c7.965-4.75,14.623-11.408,19.374-19.374c15.81,26.51,50.117,35.184,76.626,19.374c7.965-4.75,14.623-11.408,19.374-19.374
		c11.448,19.511,33.641,30.062,56,26.624v-47.36C440,226.72,429.255,215.975,416,215.975L416,215.975z"/>
	<path style="fill:#FC88A1;" d="M352,103.975H128c-13.255,0-24,10.745-24,24v47.4c16.664-2.422,31.354-12.214,40-26.664
		c15.81,26.51,50.117,35.184,76.626,19.374c7.965-4.75,14.623-11.408,19.374-19.374c15.81,26.51,50.117,35.184,76.626,19.374
		c7.965-4.75,14.623-11.408,19.374-19.374c8.646,14.45,23.336,24.242,40,26.664v-47.4C376,114.72,365.255,103.975,352,103.975z"/>
</g>
<g>
	<path style="fill:#FC5B68;" d="M242.144,96.727l-51.312-39.912c-11.56-8.986-13.968-25.494-5.456-37.408
		c8.761-12.268,25.809-15.111,38.077-6.349c3.207,2.29,5.88,5.248,7.835,8.669l10.856,19l10.856-19
		c7.48-13.089,24.154-17.635,37.243-10.155c3.422,1.955,6.379,4.628,8.669,7.835c8.509,11.913,6.106,28.417-5.448,37.408
		L242.144,96.727z"/>
	<g>
		<path id="SVGCleanerId_2" style="fill:#FC5B68;" d="M136,239.975h16v16h-16V239.975z"/>
	</g>
	<g>
		<path id="SVGCleanerId_3" style="fill:#FC5B68;" d="M232,239.975h16v16h-16V239.975z"/>
	</g>
	<g>
		<path id="SVGCleanerId_4" style="fill:#FC5B68;" d="M328,239.975h16v16h-16V239.975z"/>
	</g>
	<path style="fill:#FC5B68;" d="M416,239.975h16v16h-16V239.975z"/>
	<path style="fill:#FC5B68;" d="M48,239.975h16v16H48V239.975z"/>
	<g>
		<path id="SVGCleanerId_0" style="fill:#FC5B68;" d="M184,127.975h16v16h-16V127.975z"/>
	</g>
	<g>
		<path id="SVGCleanerId_1" style="fill:#FC5B68;" d="M280,127.975h16v16h-16V127.975z"/>
	</g>
	<path style="fill:#FC5B68;" d="M104,127.975h16v16h-16V127.975z"/>
	<path style="fill:#FC5B68;" d="M360,127.975h16v16h-16V127.975z"/>
</g>
<path style="fill:#8DD3E7;" d="M224,375.975h32v24h-32V375.975z"/>
<path style="fill:#F04855;" d="M298.912,19.407c-2.547-3.547-5.919-6.422-9.824-8.376c-14.272,37.6-46.992,58.648-68.552,68.888
	l21.6,16.8l51.32-39.912C305.007,47.819,307.414,31.32,298.912,19.407z"/>
<path d="M472,335.975h-24v-96c0-17.673-14.327-32-32-32h-32v-80c0-17.673-14.327-32-32-32h-95.856l42.256-32.8
	c15.382-11.975,18.144-34.151,6.17-49.533s-34.151-18.144-49.533-6.17c-3.63,2.826-6.672,6.334-8.956,10.327l-3.912,6.848
	l-3.912-6.848C228.565,0.885,206.998-4.971,190.084,4.72s-22.769,31.258-13.078,48.172c2.276,3.973,5.304,7.465,8.915,10.282
	l42.224,32.8H128c-17.673,0-32,14.327-32,32v80H64c-17.673,0-32,14.327-32,32v96H8c-4.418,0-8,3.582-8,8
	c0.026,22.08,17.92,39.974,40,40h176v48h-32c-22.08,0.026-39.974,17.92-40,40c0,4.418,3.582,8,8,8h176c4.418,0,8-3.582,8-8
	c-0.026-22.08-17.92-39.974-40-40h-32v-48h176c22.08-0.026,39.974-17.92,40-40C480,339.556,476.418,335.975,472,335.975z
	 M191.88,24.055c3.569-5.099,9.416-8.12,15.64-8.08h1.04c6.59,0.267,12.567,3.939,15.784,9.696L235.2,44.695
	c2.194,3.835,7.081,5.165,10.917,2.971c1.238-0.708,2.263-1.734,2.971-2.971l10.864-19c5.283-9.25,17.064-12.466,26.315-7.183
	c2.421,1.383,4.514,3.274,6.133,5.543c6.04,8.416,4.34,20.102-3.848,26.448l-46.4,36.096l-46.4-36.096
	C187.556,44.164,185.845,32.477,191.88,24.055L191.88,24.055z M128,111.975h224c8.837,0,16,7.163,16,16h-8v16h8v21.24
	c-10.53-3.732-19.424-11.027-25.144-20.624c-2.277-3.786-7.192-5.01-10.979-2.733c-1.121,0.674-2.059,1.613-2.733,2.733
	c-13.533,22.723-42.924,30.173-65.648,16.64c-6.845-4.076-12.564-9.796-16.64-16.64c-2.277-3.786-7.192-5.01-10.979-2.733
	c-1.121,0.674-2.059,1.613-2.733,2.733c-13.533,22.723-42.925,30.173-65.648,16.64c-6.845-4.076-12.564-9.796-16.64-16.64
	c-2.595-3.786-7.769-4.752-11.555-2.157c-0.846,0.58-1.577,1.311-2.157,2.157c-5.72,9.597-14.614,16.892-25.144,20.624v-21.24h8v-16
	h-8C112,119.138,119.163,111.975,128,111.975L128,111.975z M112,181.879c12.401-3.17,23.555-10.013,32-19.632
	c23.292,26.51,63.665,29.118,90.175,5.825c2.065-1.814,4.011-3.76,5.825-5.825c23.292,26.51,63.665,29.118,90.175,5.825
	c2.065-1.814,4.011-3.76,5.825-5.825c8.445,9.619,19.599,16.462,32,19.632v26.096H112V181.879z M48,255.975h16v-16H48
	c0-8.837,7.163-16,16-16h352c8.837,0,16,7.163,16,16h-16v16h16v24c-16.889,0.047-32.542-8.849-41.144-23.384
	c-2.277-3.786-7.192-5.01-10.979-2.733c-1.121,0.674-2.059,1.613-2.733,2.733c-13.533,22.723-42.924,30.173-65.648,16.64
	c-6.845-4.076-12.564-9.796-16.64-16.64c-2.595-3.786-7.769-4.752-11.555-2.157c-0.846,0.58-1.577,1.311-2.157,2.157
	c-13.533,22.723-42.925,30.173-65.648,16.64c-6.845-4.076-12.564-9.796-16.64-16.64c-2.595-3.786-7.769-4.752-11.555-2.157
	c-0.846,0.58-1.577,1.311-2.157,2.157c-13.533,22.723-42.924,30.173-65.648,16.64c-6.845-4.076-12.564-9.796-16.64-16.64
	c-2.595-3.786-7.769-4.752-11.555-2.157c-0.846,0.58-1.577,1.311-2.157,2.157C80.542,271.125,64.889,280.021,48,279.975L48,255.975z
	 M48,295.975c18.395,0.072,35.912-7.855,48-21.72c23.292,26.51,63.665,29.118,90.175,5.825c2.065-1.814,4.011-3.76,5.825-5.825
	c23.292,26.51,63.665,29.118,90.175,5.825c2.065-1.814,4.011-3.76,5.825-5.825c23.292,26.51,63.665,29.118,90.175,5.825
	c2.065-1.814,4.011-3.76,5.825-5.825c12.088,13.865,29.605,21.792,48,21.72v40H48V295.975z M318.632,463.975H161.368
	c3.403-9.582,12.464-15.988,22.632-16h112C306.168,447.987,315.229,454.393,318.632,463.975z M248,431.975h-16v-48h16V431.975z
	 M440,367.975H40c-10.168-0.012-19.229-6.418-22.632-16h445.264C459.229,361.556,450.168,367.962,440,367.975L440,367.975z"/>
<path id="SVGCleanerId_0_1_" d="M184,127.975h16v16h-16V127.975z"/>
<path id="SVGCleanerId_1_1_" d="M280,127.975h16v16h-16V127.975z"/>
<path id="SVGCleanerId_2_1_" d="M136,239.975h16v16h-16V239.975z"/>
<path id="SVGCleanerId_3_1_" d="M232,239.975h16v16h-16V239.975z"/>
<path id="SVGCleanerId_4_1_" d="M328,239.975h16v16h-16V239.975z"/>
<g>
</g>
<g>
</g>
<g>
</g>
<g>
</g>
<g>
</g>
<g>
</g>
<g>
</g>
<g>
</g>
<g>
</g>
<g>
</g>
<g>
</g>
<g>
</g>
<g>
</g>
<g>
</g>
<g>
</g>
</svg>
