<svg id="Filled_outline" height="512" viewBox="0 0 64 64" width="512" xmlns="http://www.w3.org/2000/svg" data-name="Filled outline"><rect fill="#e2e2e2" height="9" rx="2" width="58" x="3" y="16"/><path d="m26 16h12v9h-12z" fill="#faa"/><path d="m56 58a2 2 0 0 1 -2 2h-44a2 2 0 0 1 -2-2v-33h48z" fill="#efefef"/><path d="m35.16132 30.00424a3.00014 3.00014 0 0 0 -3.16132 2.99576 3.00014 3.00014 0 0 0 -3.16132-2.99576 3.11446 3.11446 0 0 0 -2.83868 3.16549v3.00184a2 2 0 0 0 .58579 1.41422l4 4a2 2 0 0 0 2.82842 0l4-4a2 2 0 0 0 .58579-1.41422v-3.00184a3.11446 3.11446 0 0 0 -2.83868-3.16549z" fill="#ff675b"/><path d="m10 4h15a4 4 0 0 1 4 4v8a0 0 0 0 1 0 0h-15a6 6 0 0 1 -6-6v-4a2 2 0 0 1 2-2z" fill="#faa"/><path d="m41 4h15a0 0 0 0 1 0 0v8a4 4 0 0 1 -4 4h-15a2 2 0 0 1 -2-2v-4a6 6 0 0 1 6-6z" fill="#faa" transform="matrix(-1 0 0 -1 91 20)"/><g fill="#e69999"><path d="m24 16v-3a4 4 0 0 0 -4-4h-12v1a6 6 0 0 0 6 6z"/><path d="m40 16v-3a4 4 0 0 1 4-4h12v1a6 6 0 0 1 -6 6z"/><path d="m29 10h6v6h-6z"/></g><path d="m59 15h-4.11053a6.97584 6.97584 0 0 0 2.11053-5v-4a3.00328 3.00328 0 0 0 -3-3h-15a5.00588 5.00588 0 0 0 -5 5v1h-4v-1a5.00588 5.00588 0 0 0 -5-5h-15a3.00328 3.00328 0 0 0 -3 3v4a6.97584 6.97584 0 0 0 2.11053 5h-4.11053a3.00328 3.00328 0 0 0 -3 3v5a3.00328 3.00328 0 0 0 3 3h2v32a3.00328 3.00328 0 0 0 3 3h44a3.00328 3.00328 0 0 0 3-3v-32h2a3.00328 3.00328 0 0 0 3-3v-5a3.00328 3.00328 0 0 0 -3-3zm-23-7a3.00328 3.00328 0 0 1 3-3h15a1.001 1.001 0 0 1 1 1v4a5.00588 5.00588 0 0 1 -5 5h-9v-2a3.00328 3.00328 0 0 1 3-3h7v-2h-7a5.00588 5.00588 0 0 0 -5 5v2h-3zm1 16h-10v-7h10zm-3-13v4h-4v-4zm-25-1v-4a1.001 1.001 0 0 1 1-1h15a3.00328 3.00328 0 0 1 3 3v7h-3v-2a5.00588 5.00588 0 0 0 -5-5h-7v2h7a3.00328 3.00328 0 0 1 3 3v2h-9a5.00588 5.00588 0 0 1 -5-5zm-4 14a1.001 1.001 0 0 1 -1-1v-5a1.001 1.001 0 0 1 1-1h20v7zm50 34a1.001 1.001 0 0 1 -1 1h-44a1.001 1.001 0 0 1 -1-1v-32h46zm5-35a1.001 1.001 0 0 1 -1 1h-20v-7h20a1.001 1.001 0 0 1 1 1z"/><path d="m29.87891 42.29346a3.00422 3.00422 0 0 0 4.24218-.00049l4-4a2.98269 2.98269 0 0 0 .87891-2.12158v-3.00147a4.08912 4.08912 0 0 0 -3.78613-4.16406 3.94984 3.94984 0 0 0 -2.9668 1.09228c-.08594.082-.169.16748-.24707.25635-.07812-.08887-.16113-.17431-.24707-.25635a3.94184 3.94184 0 0 0 -2.9668-1.09228 4.08912 4.08912 0 0 0 -3.78613 4.16406v3.00147a2.9826 2.9826 0 0 0 .87891 2.12158zm-2.87891-9.12354a2.11881 2.11881 0 0 1 1.8916-2.167c.03613-.00192.07227-.00292.1094-.00292a2.00048 2.00048 0 0 1 1.999 2v1h2v-1a2.00045 2.00045 0 0 1 2.1084-1.99707 2.11881 2.11881 0 0 1 1.8916 2.16699v3.00147a.99632.99632 0 0 1 -.293.70752l-4 3.99951a1.00053 1.00053 0 0 1 -1.41406.00049l-4-4a.99632.99632 0 0 1 -.29294-.70752z"/><path d="m20 45h2v2h-2z"/><path d="m24 45h16v2h-16z"/><path d="m42 45h2v2h-2z"/><path d="m17 49h2v2h-2z"/><path d="m21 49h23v2h-23z"/><path d="m46 49h2v2h-2z"/><path d="m22 53h2v2h-2z"/><path d="m26 53h12v2h-12z"/><path d="m40 53h2v2h-2z"/></svg>