<svg height="512pt" viewBox="-1 0 512 512" width="512pt" xmlns="http://www.w3.org/2000/svg"><path d="m474.101562 254.019531h-46.777343l27.570312 55.46875h19.207031c15.410157 0 27.898438-12.417969 27.898438-27.734375s-12.488281-27.734375-27.898438-27.734375zm0 0" fill="#f8d5ab"/><path d="m83.382812 254.019531h-46.9375c-15.410156 0-27.902343 12.417969-27.902343 27.734375s12.492187 27.734375 27.902343 27.734375h19.246094zm0 0" fill="#f8d5ab"/><path d="m29.273438 281.753906c0-15.316406 12.492187-27.734375 27.898437-27.734375h-20.726563c-15.410156 0-27.902343 12.417969-27.902343 27.734375s12.492187 27.734375 27.902343 27.734375h20.726563c-15.40625 0-27.898437-12.417969-27.898437-27.734375zm0 0" fill="#e0aa68"/><path d="m74.738281 309.488281h97.691407c-.003907 0-.003907 0-.003907 0 6.683594-3.800781 14.417969-5.980469 22.667969-5.980469h120.355469c8.25 0 15.984375 2.183594 22.667969 5.980469h97.6875c7.902343 0 15.335937 1.992188 21.824218 5.5l-63.28125-127.324219c-4.539062-9.132812-13.902344-14.917968-24.15625-14.917968h-22.972656c-8.824219 5.230468-19.003906 8.085937-29.535156 8.085937-3.179688 0-6.332032-.265625-9.421875-.773437-.113281.128906-.21875.261718-.34375.386718-1.570313 1.554688-3.679688 2.375-6.097657 2.375-3.230468 0-6.753906-1.574218-9.421874-4.214843-.054688-.054688-.109376-.109375-.164063-.164063-.054687.054688-.109375.109375-.164063.167969-2.664062 2.636719-6.1875 4.210937-9.421874 4.210937-2.414063 0-4.523438-.820312-6.097657-2.375-1.210937-1.199218-1.945312-2.699218-2.246093-4.335937-2.640626-.195313-5.421876-.988281-8.128907-2.355469-2.214843 7.339844-7.492187 12.503906-13.65625 12.503906-6.019531 0-11.191406-4.929687-13.492187-11.996093-6.765625 3.601562-14.109375 3.632812-18.488282-.476563-8.382812 4.5625-17.878906 7.046875-27.679687 7.046875-10.53125 0-20.710937-2.855469-29.535156-8.085937h-22.667969c-10.230469 0-19.582031 5.765625-24.132812 14.875l-63.570313 127.347656c6.480469-3.496094 13.898437-5.480469 21.785156-5.480469zm0 0" fill="#ffe2b8"/><path d="m195.09375 303.507812h120.355469c8.25 0 15.984375 2.179688 22.667969 5.980469h86.726562l-52.425781-105.484375c-1.222657-2.464844-4.476563-4.476562-7.226563-4.476562h-219.535156c-2.75 0-6.003906 2.011718-7.230469 4.472656l-52.660156 105.488281h86.664063c6.679687-3.800781 14.414062-5.980469 22.664062-5.980469zm0 0" fill="#ff99a3"/><path d="m106.707031 309.488281 52.65625-105.488281c1.230469-2.460938 4.484375-4.472656 7.234375-4.472656h-20.941406c-2.75 0-6.003906 2.011718-7.234375 4.472656l-52.65625 105.488281zm0 0" fill="#f66"/><path d="m406.011719 451.152344h64.992187v53.347656h-64.992187zm0 0" fill="#383838"/><path d="m427.5625 451.152344h21.890625v53.347656h-21.890625zm0 0" fill="#585959"/><path d="m39.539062 451.152344h64.992188v53.347656h-64.992188zm0 0" fill="#383838"/><path d="m61.089844 451.152344h21.894531v53.347656h-21.894531zm0 0" fill="#585959"/><path d="m315.449219 303.507812c8.25 0 15.984375 2.183594 22.667969 5.980469h27.910156v-47.820312c0-5.933594-4.835938-10.738281-10.800782-10.738281h-54.015624c-5.964844 0-10.804688 4.808593-10.804688 10.738281v41.839843zm0 0" fill="#a7a9ac"/><path d="m311.273438 303.507812v-41.839843c0-5.933594 4.835937-10.738281 10.800781-10.738281h-20.859375c-5.96875 0-10.804688 4.808593-10.804688 10.738281v41.839843zm0 0" fill="#8a8c8e"/><path d="m172.429688 309.488281c-.003907 0-.003907 0-.003907 0 6.683594-3.800781 14.417969-5.980469 22.667969-5.980469h25.039062v-41.839843c0-5.933594-4.835937-10.738281-10.804687-10.738281h-54.011719c-5.964844 0-10.800781 4.808593-10.800781 10.738281v47.820312zm0 0" fill="#a7a9ac"/><path d="m165.273438 309.488281v-47.820312c0-5.933594 4.832031-10.738281 10.800781-10.738281h-20.757813c-5.964844 0-10.800781 4.808593-10.800781 10.738281v47.820312zm0 0" fill="#8a8c8e"/><path d="m149.359375 348.96875c0-16.90625 9.292969-31.648438 23.070313-39.480469h-97.691407c-25.257812 0-45.734375 20.355469-45.734375 45.460938v49.148437h120.355469zm0 0" fill="#f8d5ab"/><path d="m435.804688 309.488281h-97.6875c13.777343 7.832031 23.070312 22.574219 23.070312 39.480469v55.128906h120.351562v-49.148437c0-25.105469-20.472656-45.460938-45.734374-45.460938zm0 0" fill="#f8d5ab"/><path d="m49.800781 352.558594c1.25-23.996094 21.21875-43.070313 45.671875-43.070313h-20.734375c-24.449219 0-44.417969 19.074219-45.671875 43.070313zm0 0" fill="#e0aa68"/><path d="m185.453125 404.097656v-1.53125c0-2.75 2.25-5 5-5h129.636719c2.75 0 5 2.25 5 5v1.53125h36.097656v-55.128906c0-25.109375-20.476562-45.460938-45.738281-45.460938h-120.355469c-25.257812 0-45.734375 20.351563-45.734375 45.460938v55.128906zm0 0" fill="#fcf3eb"/><path d="m481.539062 404.097656v-49.148437c0-.800781-.019531-1.597657-.0625-2.390625h-25.039062c-37.234375 0-67.917969 22.503906-72.265625 51.539062zm0 0" fill="#ffcb00"/><path d="m126.371094 404.097656c-4.34375-29.035156-35.03125-51.539062-72.265625-51.539062h-25.039063c-.039062.792968-.0625 1.589844-.0625 2.390625v49.148437zm0 0" fill="#ffcb00"/><path d="m49.355469 404.097656v-49.148437c0-.800781.023437-1.597657.0625-2.390625h-20.351563c-.039062.792968-.0625 1.589844-.0625 2.390625v49.148437zm0 0" fill="#ffaf10"/><path d="m95.554688 404.097656c.117187-.941406.1875-1.898437.1875-2.871094 0-12.582031-10.207032-22.785156-22.792969-22.785156-12.585938 0-22.789063 10.203125-22.789063 22.785156 0 .972657.070313 1.929688.1875 2.871094zm0 0" fill="#fff4a4"/><path d="m460.195312 404.097656c.121094-.941406.1875-1.898437.1875-2.871094 0-12.582031-10.203124-22.785156-22.789062-22.785156s-22.789062 10.203125-22.789062 22.785156c0 .972657.066406 1.929688.183593 2.871094zm0 0" fill="#fff4a4"/><path d="m185.453125 404.097656h-162.953125c-8.25 0-15 6.75-15 15v17.054688c0 8.25 6.75 15 15 15h162.957031v-47.054688zm0 0" fill="#c7c8ca"/><path d="m488.042969 404.097656h-162.953125v47.054688h162.953125c8.25 0 15-6.75 15-15v-17.054688c0-8.25-6.75-15-15-15zm0 0" fill="#c7c8ca"/><path d="m38.730469 436.152344v-17.054688c0-8.25 6.75-15 15-15h-31.230469c-8.25 0-15 6.75-15 15v17.054688c0 8.25 6.75 15 15 15h31.230469c-8.25 0-15-6.75-15-15zm0 0" fill="#a7a9ac"/><path d="m321.960938 113.164062c-1.164063 0-2.257813-.453124-3.078126-1.273437l-35.671874-35.6875c-4.175782-4.183594-6.476563-9.730469-6.476563-15.640625 0-5.90625 2.300781-11.460938 6.476563-15.632812 4.171874-4.179688 9.722656-6.480469 15.628906-6.480469s11.457031 2.300781 15.632812 6.480469l7.488282 7.484374 7.488281-7.484374c4.179687-4.179688 9.726562-6.480469 15.632812-6.480469s11.457031 2.300781 15.632813 6.480469c4.175781 4.171874 6.472656 9.726562 6.472656 15.632812s-2.296875 11.460938-6.472656 15.640625l-35.675782 35.6875c-.820312.820313-1.914062 1.273437-3.078124 1.273437zm0 0" fill="#f66"/><path d="m303.75 66.035156c-4.175781-4.179687-6.476562-9.730468-6.476562-15.636718 0-4.269532 1.214843-8.34375 3.457031-11.855469-.625-.054688-1.253907-.09375-1.890625-.09375-5.90625 0-11.457032 2.300781-15.628906 6.480469-4.175782 4.171874-6.476563 9.726562-6.476563 15.632812s2.300781 11.457031 6.476563 15.640625l35.671874 35.6875c.820313.820313 1.914063 1.273437 3.078126 1.273437 1.164062 0 2.257812-.453124 3.082031-1.273437l12.269531-12.277344zm0 0" fill="#fe3745"/><path d="m218.457031 70.640625c-.984375 0-1.90625-.382813-2.605469-1.078125l-30.144531-30.160156c-3.527343-3.53125-5.472656-8.222656-5.472656-13.214844s1.945313-9.683594 5.472656-13.210938c3.527344-3.53125 8.21875-5.476562 13.210938-5.476562 4.988281 0 9.679687 1.941406 13.207031 5.476562l6.328125 6.328126 6.328125-6.328126c3.53125-3.53125 8.222656-5.476562 13.210938-5.476562 4.992187 0 9.683593 1.941406 13.210937 5.476562 3.527344 3.527344 5.472656 8.21875 5.472656 13.210938s-1.945312 9.6875-5.472656 13.214844l-30.144531 30.160156c-.695313.695312-1.621094 1.078125-2.601563 1.078125zm0 0" fill="#ff99a3"/><path d="m206.304688 28.902344c-3.527344-3.53125-5.472657-8.222656-5.472657-13.214844 0-2.753906.609375-5.40625 1.734375-7.832031-1.1875-.234375-2.410156-.355469-3.648437-.355469-4.992188 0-9.683594 1.941406-13.207031 5.476562-3.53125 3.523438-5.476563 8.21875-5.476563 13.210938s1.945313 9.683594 5.476563 13.214844l30.140624 30.15625c.699219.695312 1.621094 1.078125 2.605469 1.078125s1.90625-.382813 2.605469-1.078125l12.941406-12.945313zm0 0" fill="#f66"/><path d="m325.089844 452.683594c0 2.75-2.25 5-5 5h-129.636719c-2.75 0-5-2.25-5-5v-50.117188c0-2.75 2.25-5 5-5h129.636719c2.75 0 5 2.25 5 5zm0 0" fill="#585959"/><path d="m206.273438 452.683594v-50.117188c0-2.75 2.25-5 5-5h-20.820313c-2.75 0-5 2.25-5 5v50.117188c0 2.75 2.25 5 5 5h20.820313c-2.75 0-5-2.25-5-5zm0 0" fill="#383838"/><path d="m276.394531 353.3125c0 1.648438-1.089843 3.789062-2.429687 4.757812l-16.261719 11.78125c-1.335937.96875-3.523437.96875-4.859375 0l-16.265625-11.78125c-1.335937-.96875-2.429687-3.109374-2.429687-4.757812v-24.605469c0-1.648437 1.351562-3 3-3h36.246093c1.652344 0 3 1.351563 3 3zm0 0" fill="#f39600"/><path d="m250.703125 351.363281c-1.335937-.96875-2.429687-3.109375-2.429687-4.757812v-20.898438h-11.125c-1.648438 0-3 1.351563-3 3v24.605469c0 1.648438 1.09375 3.789062 2.429687 4.757812l16.265625 11.78125c1.335938.96875 3.523438.96875 4.859375 0l9.261719-6.707031zm0 0" fill="#ce7a00"/><path d="m220.359375 173.628906c-4.253906-4.179687-4.359375-11.257812-.894531-17.847656-7.480469-2.175781-12.742188-7.355469-12.742188-13.402344 0-1.113281.179688-2.195312.515625-3.234375-4.652343-1.1875-9.476562-1.820312-14.378906-1.820312-16.695313 0-32.523437 7.152343-43.433594 19.628906-.53125.609375-.796875 1.367187-.796875 2.125s.265625 1.515625.796875 2.121094c10.910157 12.476562 26.738281 19.632812 43.433594 19.632812 9.800781 0 19.296875-2.484375 27.679687-7.046875-.058593-.054687-.121093-.101562-.179687-.15625zm0 0" fill="#00cca5"/><path d="m220.359375 173.628906c-1.402344-1.378906-2.34375-3.074218-2.867187-4.957031-4.671876 1.199219-9.519532 1.835937-14.449219 1.835937-16.695313 0-32.527344-7.15625-43.433594-19.632812-.535156-.605469-.800781-1.363281-.800781-2.121094 0-.132812.019531-.265625.035156-.394531-3.417969 2.488281-6.585938 5.355469-9.417969 8.59375-.53125.609375-.796875 1.367187-.796875 2.121094 0 .757812.265625 1.519531.796875 2.125 10.910157 12.476562 26.738281 19.632812 43.433594 19.632812 9.800781 0 19.296875-2.484375 27.679687-7.046875-.058593-.054687-.121093-.101562-.179687-.15625zm0 0" fill="#159e97"/><path d="m361.117188 156.953125c-10.90625-12.476563-26.734376-19.628906-43.433594-19.628906-7.078125 0-14 1.296875-20.460938 3.734375.003906.085937.015625.171875.015625.257812 0 4.226563-2.582031 8.023438-6.6875 10.671875.527344.402344 1.039063.828125 1.519531 1.300781.054688.058594.109376.113282.167969.171876.054688-.058594.109375-.113282.164063-.167969 2.667968-2.636719 6.1875-4.214844 9.421875-4.214844 2.414062 0 4.523437.824219 6.097656 2.378906 1.933594 1.914063 2.75 4.613281 2.300781 7.601563-.363281 2.414062-1.539062 4.824218-3.351562 6.894531 1.8125 2.066406 2.988281 4.476563 3.351562 6.890625.421875 2.796875-.28125 5.332031-1.960937 7.21875 3.09375.507812 6.242187.769531 9.421875.769531 16.695312 0 32.527344-7.15625 43.433594-19.632812.535156-.605469.800781-1.363281.800781-2.121094s-.265625-1.515625-.800781-2.125zm0 0" fill="#00cca5"/><path d="m361.117188 156.953125c-1.894532-2.167969-3.945313-4.160156-6.113282-5.996094-10.707031 10.496094-25.195312 16.457031-40.410156 16.457031-2.316406 0-4.617188-.148437-6.890625-.421874 1.335937 1.816406 2.214844 3.832031 2.519531 5.847656.421875 2.800781-.28125 5.335937-1.957031 7.222656 3.089844.503906 6.238281.769531 9.421875.769531 16.691406 0 32.523438-7.15625 43.429688-19.632812.535156-.605469.800781-1.363281.800781-2.121094s-.265625-1.515625-.800781-2.125zm0 0" fill="#159e97"/><path d="m277.601562 165.949219c-4.140624-4.730469-4.65625-10.921875-1.046874-14.492188 1.574218-1.554687 3.679687-2.378906 6.097656-2.378906 2.652344 0 5.492187 1.074219 7.898437 2.910156 4.105469-2.644531 6.6875-6.445312 6.6875-10.671875 0-6.046875-5.265625-11.226562-12.742187-13.402344 3.464844-6.59375 3.359375-13.667968-.898438-17.847656-4.355468-4.273437-11.8125-4.285156-18.664062-.632812-2.300782-7.066406-7.476563-11.996094-13.496094-11.996094-6.164062 0-11.441406 5.164062-13.65625 12.503906-6.71875-3.402344-13.933594-3.296875-18.1875.878906-4.355469 4.277344-4.367188 11.59375-.644531 18.316407-7.203125 2.257812-12.226563 7.335937-12.226563 13.242187 0 6.046875 5.261719 11.226563 12.742188 13.398438-3.46875 6.59375-3.359375 13.671875.894531 17.847656 4.355469 4.273438 11.8125 4.285156 18.664063.632812 2.300781 7.066407 7.476562 12 13.496093 12 6.164063 0 11.441407-5.167968 13.65625-12.503906 2.707031 1.367188 5.488281 2.160156 8.128907 2.355469-.59375-3.234375.546874-7.015625 3.296874-10.160156zm0 0" fill="#ff99a3"/><path d="m266.058594 141.847656c0-7.628906-6.304688-13.8125-14.078125-13.8125-7.773438 0-14.078125 6.183594-14.078125 13.8125s6.304687 13.8125 14.078125 13.8125c7.773437 0 14.078125-6.183594 14.078125-13.8125zm0 0" fill="#fff"/><path d="m282.648438 182.820312c3.234374 0 6.757812-1.574218 9.421874-4.210937.054688-.058594.109376-.113281.164063-.167969.054687.054688.109375.109375.164063.164063 2.667968 2.640625 6.191406 4.214843 9.421874 4.214843 2.417969 0 4.527344-.820312 6.097657-2.375 1.933593-1.914062 2.753906-4.617187 2.304687-7.605468-.363281-2.410156-1.542968-4.820313-3.351562-6.890625 1.8125-2.070313 2.988281-4.480469 3.351562-6.890625.449219-2.988282-.371094-5.691406-2.304687-7.605469-1.570313-1.554687-3.679688-2.375-6.097657-2.375-3.230468 0-6.753906 1.574219-9.417968 4.210937-.054688.058594-.113282.113282-.167969.171876-.054687-.0625-.109375-.113282-.167969-.171876-2.660156-2.636718-6.183594-4.210937-9.414062-4.210937-2.417969 0-4.527344.820313-6.101563 2.375-3.605469 3.570313-3.09375 9.761719 1.050781 14.496094-4.140624 4.730469-4.65625 10.921875-1.050781 14.492187 1.574219 1.558594 3.683594 2.378906 6.097657 2.378906zm0 0" fill="#f66"/><path d="m156.859375 348.96875v47.628906h13.414063v-47.628906c0-7.183594 1.679687-13.972656 4.664062-20.011719v-12.226562c-10.84375 6.707031-18.078125 18.648437-18.078125 32.238281zm0 0" fill="#e0e0e0"/><path d="m313.582031 117.195312c2.242188 2.238282 5.21875 3.46875 8.378907 3.46875 3.160156 0 6.140624-1.230468 8.386718-3.472656l35.671875-35.6875c5.589844-5.59375 8.667969-13.03125 8.667969-20.941406 0-7.914062-3.078125-15.347656-8.667969-20.933594-5.589843-5.597656-13.027343-8.679687-20.9375-8.679687-7.90625 0-15.34375 3.082031-20.9375 8.675781l-2.183593 2.1875-2.183594-2.183594c-5.589844-5.597656-13.027344-8.679687-20.9375-8.679687-7.914063 0-15.351563 3.082031-20.933594 8.675781-5.59375 5.589844-8.675781 13.027344-8.675781 20.9375 0 7.90625 3.078125 15.339844 8.671875 20.941406zm-25.066406-66.964843c2.753906-2.761719 6.421875-4.28125 10.324219-4.28125s7.570312 1.523437 10.332031 4.285156l7.488281 7.488281c2.929688 2.925782 7.675782 2.925782 10.605469 0l7.488281-7.488281c2.761719-2.761719 6.429688-4.285156 10.328125-4.285156 3.902344 0 7.570313 1.523437 10.332031 4.285156 2.757813 2.757813 4.273438 6.425781 4.273438 10.328125 0 3.90625-1.519531 7.578125-4.277344 10.335938l-33.449218 33.464843-33.445313-33.460937c-2.761719-2.765625-4.28125-6.4375-4.28125-10.339844s1.519531-7.570312 4.28125-10.332031zm0 0"/><path d="m210.550781 74.867188c2.113281 2.109374 4.921875 3.269531 7.902344 3.269531 2.984375 0 5.792969-1.160157 7.910156-3.273438l30.144531-30.160156c4.945313-4.945313 7.667969-11.519531 7.667969-18.515625 0-7-2.722656-13.574219-7.664062-18.511719-4.945313-4.949219-11.519531-7.675781-18.515625-7.675781s-13.570313 2.726562-18.515625 7.671875l-1.027344 1.027344-1.019531-1.023438c-4.941406-4.949219-11.519532-7.675781-18.515625-7.675781-7 0-13.578125 2.726562-18.511719 7.671875-4.945312 4.941406-7.671875 11.519531-7.671875 18.515625 0 6.992188 2.722656 13.566406 7.667969 18.519531zm-19.53125-56.59375c2.105469-2.109376 4.910157-3.273438 7.898438-3.273438 2.984375 0 5.792969 1.164062 7.90625 3.28125l6.328125 6.324219c2.929687 2.929687 7.675781 2.929687 10.605468 0l6.332032-6.328125c2.109375-2.113282 4.917968-3.277344 7.90625-3.277344 2.984375 0 5.789062 1.164062 7.90625 3.28125 2.113281 2.109375 3.273437 4.917969 3.273437 7.90625s-1.164062 5.800781-3.273437 7.914062l-27.445313 27.453126-27.441406-27.453126c-2.113281-2.117187-3.28125-4.925781-3.28125-7.914062s1.164063-5.792969 3.285156-7.914062zm0 0"/><path d="m488.042969 458.652344c12.40625 0 22.5-10.09375 22.5-22.5v-17.054688c0-12.074218-9.558594-21.953125-21.503907-22.476562v-41.671875c0-14.875-6.207031-28.332031-16.167968-37.960938h1.230468c19.519532 0 35.398438-15.808593 35.398438-35.234375 0-19.429687-15.878906-35.234375-35.398438-35.234375h-42.128906l-30.910156-62.191406c-5.847656-11.769531-17.675781-19.082031-30.867188-19.082031h-2.742187c1.269531-1.796875 1.964844-3.945313 1.964844-6.167969 0-2.597656-.945313-5.105469-2.652344-7.0625-12.332031-14.105469-30.222656-22.191406-49.082031-22.191406-5.339844 0-10.59375.667969-15.671875 1.921875-1.867188-3.085938-4.628907-5.785156-8.113281-7.878906 1.5625-7.332032-.175782-14.371094-5.046876-19.152344-3.578124-3.507813-8.566406-5.441406-14.046874-5.441406-2.007813 0-4.0625.253906-6.113282.75-4.140625-6.292969-10.40625-10.085938-17.253906-10.085938-7.109375 0-13.527344 4.019531-17.644531 10.679688-1.816407-.390626-3.632813-.589844-5.40625-.589844-5.484375 0-10.472657 1.933594-14.042969 5.441406-5.066406 4.96875-6.75 12.285156-4.902344 19.863281-2.378906 1.523438-4.40625 3.339844-6.011718 5.371094-3.46875-.574219-7-.878906-10.570313-.878906-18.859375 0-36.746094 8.089843-49.078125 22.191406-1.710938 1.957031-2.652344 4.464844-2.652344 7.0625 0 2.226563.695313 4.378906 1.957032 6.167969h-2.425782c-13.164062 0-24.984375 7.292968-30.84375 19.027344l-31.074218 62.246093h-42.296876c-19.519531 0-35.402343 15.804688-35.402343 35.234375 0 19.425782 15.882812 35.234375 35.402343 35.234375h1.226563c-9.960937 9.628907-16.167969 23.085938-16.167969 37.960938v41.671875c-11.945312.523437-21.503906 10.402344-21.503906 22.476562v17.054688c0 12.40625 10.09375 22.5 22.5 22.5h9.539062v38.347656h-24.539062c-4.140625 0-7.5 3.355469-7.5 7.5s3.359375 7.5 7.5 7.5h495.542969c4.144531 0 7.5-3.355469 7.5-7.5s-3.355469-7.5-7.5-7.5h-24.539063v-38.347656zm-14.003907-98.59375v36.539062h-6.507812c-2.234375-14.507812-14.808594-25.65625-29.9375-25.65625s-27.703125 11.148438-29.9375 25.65625h-13.792969c8.039063-21.105468 33.035157-36.539062 62.574219-36.539062zm-21.878906 36.539062h-29.136718c1.964843-6.171875 7.753906-10.65625 14.570312-10.65625s12.601562 4.484375 14.566406 10.65625zm-94.3125-79.609375h77.957032c17.636718 0 32.515624 11.917969 36.910156 28.070313h-16.277344c-38.195312 0-70.222656 22.074218-78.3125 51.539062h-9.441406v-47.628906c.003906-12.003906-4.039063-23.085938-10.835938-31.980469zm-17.863281-15c-7.347656-3.8125-15.6875-5.980469-24.535156-5.980469h-17.539063v-34.339843c0-1.785157 1.480469-3.238281 3.304688-3.238281h54.011718c1.820313 0 3.300782 1.453124 3.300782 3.238281v40.320312zm13.703125 46.980469v47.628906h-18.078125v-79.867187c10.839844 6.707031 18.078125 18.648437 18.078125 32.238281zm-183.125-46.980469h-18.546875v-40.320312c0-1.785157 1.480469-3.238281 3.304687-3.238281h54.011719c1.820313 0 3.304688 1.453124 3.304688 3.238281v34.339843h-17.539063c-8.847656 0-17.1875 2.167969-24.535156 5.980469zm4.375 14.742188v79.867187h-18.078125v-47.628906c0-13.589844 7.234375-25.53125 18.078125-32.238281zm-22.242188.257812c-6.792968 8.894531-10.835937 19.976563-10.835937 31.980469v47.628906h-9.4375c-8.09375-29.464844-40.117187-51.539062-78.316406-51.539062h-16.277344c4.398437-16.152344 19.273437-28.070313 36.910156-28.070313zm37.242188-5.628906c1.6875-.226563 3.40625-.351563 5.15625-.351563h8.976562v79.058594h-13.617187c-.171875 0-.34375.011719-.515625.019532zm3.015625 93.707031h124.636719v45.117188h-124.636719zm39.226563-40.921875 1.023437.746094v25.175781h-14.132813v-79.058594h14.132813v7.976563c-3.839844 1.5625-6.554687 5.328125-6.554687 9.722656v24.605469c0 4.085938 2.222656 8.4375 5.53125 10.832031zm36.714843-30.9375v19.277344l-13.621093 9.867187-13.625-9.867187v-19.277344zm-20.691406-15v-7.199219h14.136719v7.199219zm14.136719 57.546875v14.3125h-14.136719v-14.3125l.238281.171875c1.917969 1.386719 4.34375 2.152344 6.832032 2.152344 2.488281 0 4.910156-.765625 6.828124-2.152344zm44.132812 14.3125v-23.066406c0-4.144531-3.355468-7.5-7.5-7.5-4.140625 0-7.5 3.355469-7.5 7.5v23.066406h-14.132812v-25.179687l1.023437-.742188c3.308594-2.394531 5.53125-6.75 5.53125-10.832031v-24.605469c0-4.394531-2.714843-8.160156-6.554687-9.726562v-7.976563h14.132812v20.992188c0 4.144531 3.359375 7.5 7.5 7.5 4.144532 0 7.5-3.355469 7.5-7.5v-20.992188h8.976563c1.75 0 3.46875.128906 5.160156.355469v78.726563c-.175781-.007813-.347656-.019532-.519531-.019532zm167.628906-128.546875c11.246094 0 20.398438 9.078125 20.398438 20.234375s-9.152344 20.234375-20.398438 20.234375h-14.558593l-20.113281-40.46875zm-156.417968-116.695312c13.222656 0 25.820312 5.148437 35.125 14.25-9.277344 9.078125-21.828125 14.222656-35.007813 14.253906-.03125-.53125-.082031-1.0625-.164062-1.601563-.261719-1.761718-.792969-3.488281-1.539063-5.152343h8.207032c4.140624 0 7.5-3.355469 7.5-7.5 0-4.140625-3.359376-7.5-7.5-7.5h-7.546876c-.785156-2.035157-1.984374-3.886719-3.566406-5.449219-.351562-.351562-.726562-.675781-1.109375-.984375 1.851563-.207031 3.71875-.316406 5.601563-.316406zm0 43.507812c11.160156 0 21.96875-2.855469 31.496094-8.085937h21.015624c7.457032 0 14.140626 4.121094 17.4375 10.757812l55.410157 111.484375c-2.367188-.320312-4.78125-.5-7.238281-.5h-6.3125l-26.007813-52.332031c-1.84375-3.707031-6.34375-5.222656-10.054687-3.378906-3.710938 1.84375-5.222657 6.347656-3.378907 10.054687l22.691407 45.65625h-39.210938v-40.320312c0-10.058594-8.210938-18.238281-18.304688-18.238281h-54.011718c-10.09375 0-18.304688 8.179687-18.304688 18.238281v34.339843h-55.277344v-34.339843c0-10.058594-8.207031-18.238281-18.300781-18.238281h-54.015625c-10.089844 0-18.300781 8.179687-18.300781 18.238281v40.320312h-39.125l47.175781-94.503906c.164063-.167969.519532-.386719.742188-.457031h219.230468c.222657.070312.570313.285156.730469.453125l8.378907 16.855469c1.84375 3.710937 6.34375 5.222656 10.054687 3.378906 3.707031-1.84375 5.222656-6.347656 3.375-10.054688l-8.445313-16.996094c-2.484374-5.003906-8.351562-8.640624-13.941406-8.640624h-104.835937c3.628906-1.664063 6.828125-4.460938 9.292969-8.15625.484374.671874 1.023437 1.308593 1.628906 1.90625 2.960937 2.933593 7 4.546874 11.371094 4.546874 3.261718 0 6.570312-.902343 9.589843-2.558593 3.019531 1.65625 6.324219 2.558593 9.585938 2.558593 3.136719 0 6.097656-.84375 8.617187-2.398437 2.390625.269531 4.808594.410156 7.242188.410156zm-25.441406-27.359375c2.050781-.003906 4-.835937 5.410156-2.324218.007812-.007813.027344-.027344.050781-.046876 1.984375-1.945312 4.445313-2.296874 4.941406-1.8125.253907.25.210938.832032.164063 1.148438-.148438.976562-.722656 2.097656-1.582032 3.078125-2.472656 2.828125-2.46875 7.046875 0 9.875.859376.976563 1.433594 2.097656 1.578126 3.070313.050781.320312.09375.902343-.160157 1.152343-.171875.171875-.542969.207031-.820312.207031-1.035157 0-2.71875-.632812-4.148438-2.042968l-.136719-.140625c-2.902343-2.898438-7.59375-2.929688-10.535156-.066407l-.207031.207032c-1.425781 1.410156-3.109375 2.042968-4.148437 2.042968-.40625 0-.679688-.070312-.820313-.207031-.363281-.359375-.324219-2.234375 1.414063-4.222656 2.476562-2.828125 2.476562-7.050781.003906-9.878906-1.742188-1.988281-1.78125-3.863281-1.421875-4.21875.503906-.503907 3.003906-.117188 4.917969 1.777343l.078124.078126c1.414063 1.476562 3.359376 2.324218 5.40625 2.324218zm-71.050782-24.679687c2.152344-.671875 3.886719-2.277344 4.722656-4.371094.835938-2.089844.6875-4.449219-.402343-6.417969-2.074219-3.746094-2.355469-7.671875-.660157-9.332031.960938-.945313 2.453126-1.144531 3.535157-1.144531 1.828125 0 3.960937.570312 6.007812 1.605468 1.980469 1.003907 4.300781 1.078126 6.339844.203126 2.039063-.871094 3.585937-2.605469 4.230469-4.726563 1.273437-4.222656 3.9375-7.171875 6.472656-7.171875 2.441406 0 5.058594 2.804688 6.367188 6.820312.683593 2.105469 2.269531 3.800782 4.328124 4.632813 2.054688.828125 4.371094.703125 6.328126-.339844 2.15625-1.148437 4.40625-1.777343 6.34375-1.777343 1.082031 0 2.578124.199218 3.542968 1.144531 1.648438 1.617187 1.449219 5.324219-.488281 9.007812-1.046875 1.996094-1.144531 4.351563-.261719 6.425781.878906 2.070313 2.644532 3.636719 4.808594 4.265626 4.25 1.234374 7.332031 3.84375 7.332031 6.199218 0 .492188-.144531 1-.402343 1.503906-2.179688-.808593-4.441407-1.242187-6.683594-1.242187-3.40625 0-6.605469.996094-9.261719 2.820313.101563-.835938.167969-1.6875.167969-2.550782 0-11.753906-9.679688-21.3125-21.578125-21.3125-11.894531 0-21.574219 9.5625-21.574219 21.3125s9.679688 21.3125 21.574219 21.3125c5.675781 0 10.832031-2.191406 14.691406-5.746094-.015625 2.835938.644531 5.761719 1.992187 8.535157-.101562.214843-.1875.429687-.285156.644531-1.683594-.515625-3.507812-.4375-5.152344.265625-2.039062.871094-3.585937 2.605469-4.230468 4.726563-1.273438 4.222656-3.933594 7.171874-6.472656 7.171874-2.4375 0-5.054688-2.804687-6.363282-6.820312-.6875-2.109375-2.269531-3.804688-4.328125-4.632812-.902343-.363282-1.855469-.546876-2.804687-.546876-1.214844 0-2.429688.296876-3.527344.882813-2.152344 1.148437-4.40625 1.78125-6.339844 1.78125-1.085937 0-2.578125-.199219-3.546875-1.148437-1.644531-1.617188-1.445312-5.320313.492188-9.003907 1.046875-1.992187 1.144531-4.351562.261719-6.425781-.878907-2.070312-2.644532-3.636719-4.808594-4.265625-4.25-1.234375-7.335938-3.84375-7.335938-6.199219 0-2.261718 2.929688-4.820312 6.96875-6.085937zm37.367188 5.554687c0 3.480469-2.953125 6.3125-6.578125 6.3125-3.628907 0-6.578125-2.832031-6.578125-6.3125 0-3.480468 2.949218-6.3125 6.578125-6.3125 3.625 0 6.578125 2.832032 6.578125 6.3125zm-65.699219 2.976563c2.222656 0 4.425781.15625 6.605469.441406.359375 2.21875 1.132812 4.339844 2.265625 6.308594h-15.492188c-4.140625 0-7.5 3.359375-7.5 7.5 0 4.144531 3.359375 7.5 7.5 7.5h23.320313c.089844 1.261719.285156 2.488281.585937 3.675781-5.472656 2-11.308593 3.082031-17.285156 3.082031-13.21875 0-25.808594-5.148437-35.125-14.257812 9.304687-9.097657 21.902344-14.25 35.125-14.25zm-69.625 46.148437c3.304687-6.617187 9.980469-10.726562 17.425781-10.726562h20.707032c9.527343 5.234375 20.335937 8.085937 31.492187 8.085937 9.507813 0 18.757813-2.074219 27.179687-5.929687 2.734376 1.3125 5.832032 2.019531 9.117188 2.019531 2.007812 0 4.0625-.253906 6.113281-.75 2.492188 3.789063 5.753907 6.660156 9.449219 8.355469h-99.0625c-5.585938 0-11.449219 3.625-13.945312 8.625l-50.585938 101.335937h-6.386719c-2.429687 0-4.820312.175781-7.167969.492188zm-86.789063 111.015625c-11.25 0-20.402343-9.078125-20.402343-20.234375s9.152343-20.234375 20.402343-20.234375h34.808594l-20.203125 40.46875zm.058594 58.070313h17.601563c29.539062 0 54.535156 15.433594 62.574219 36.539062h-13.792969c-2.234375-14.507812-14.808594-25.65625-29.9375-25.65625-15.128907 0-27.699219 11.148438-29.933594 25.65625h-6.511719zm51.015625 36.539062h-29.136719c1.964844-6.171875 7.75-10.65625 14.566407-10.65625 6.820312 0 12.605469 4.484375 14.570312 10.65625zm-65.019531 47.054688c-4.136719 0-7.5-3.363282-7.5-7.5v-17.054688c0-4.136718 3.363281-7.5 7.5-7.5h155.457031v32.054688zm31.089844 53.347656h-6.550782v-38.347656h6.550782zm21.894531 0h-6.894531v-38.347656h6.894531zm21.546875 0h-6.546875v-38.347656h6.546875zm323.03125 0h-6.550781v-38.347656h6.550781zm21.890625 0h-6.894531v-38.347656h6.894531zm21.550781 0h-6.550781v-38.347656h6.550781zm-78.230468-53.347656c-4.144532 0-7.5 3.355468-7.5 7.5 0 4.144531 3.355468 7.5 7.5 7.5h13.238281v38.347656h-286.480469v-38.347656h67.445312c2.121094 3.886718 6.246094 6.53125 10.976563 6.53125h129.636719c4.730468 0 8.855468-2.644532 10.976562-6.53125h19.207032c4.140624 0 7.5-3.355469 7.5-7.5 0-4.144532-3.359376-7.5-7.5-7.5h-17.683594v-32.054688h155.453125c4.136719 0 7.5 3.363282 7.5 7.5v17.054688c0 4.136718-3.363281 7.5-7.5 7.5zm0 0"/><path d="m295.5625 419.542969h-80.582031c-4.140625 0-7.5 3.355469-7.5 7.5 0 4.140625 3.359375 7.5 7.5 7.5h80.582031c4.144531 0 7.5-3.359375 7.5-7.5 0-4.144531-3.355469-7.5-7.5-7.5zm0 0"/></svg>